<?xml version="1.0" encoding="UTF-8"?><svg id="Layer_1" xmlns="http://www.w3.org/2000/svg" viewBox="0 0 618 192"><defs><style>.cls-1,.cls-2,.cls-3{stroke-width:0px;}.cls-2{fill:#303863;}.cls-3{fill:#fd0;}</style></defs><rect class="cls-3" x="61.36" y="16.95" width="158" height="158" rx="12.16" ry="12.16"/><g id="gwI8x0.tif"><path class="cls-2" d="m164.97,130.65v-.67c0-24.4,0-48.8,0-73.19,0-.74,0-.74-.76-.74-17.19,0-34.38,0-51.56,0-.14,0-.29.01-.52.03,0,.25,0,.48,0,.7,0,4.75,0,9.5,0,14.26,0,2.58-1.55,4.62-3.98,5.3-3.33.93-6.78-1.6-6.81-5.07-.04-5.21-.05-10.42,0-15.62.05-4.9,3.86-9.31,8.7-10.18.73-.13,1.48-.2,2.22-.2,17.52-.01,35.03-.01,52.55,0,5.08,0,9.28,3.16,10.56,8.01.27,1.01.39,2.08.39,3.13.02,24.05.02,48.1.01,72.16,0,1.24.02,2.48-.11,3.7-.42,4.12-3.88,7.97-7.91,8.93-2.52.6-4.94.39-7.3-.67-4.33-1.95-8.65-3.9-13-5.82-.46-.21-1.02-.3-1.53-.3-17.46-.02-34.92-.01-52.38-.01-2.26,0-4.37-.54-6.23-1.85-3.03-2.12-4.72-5.03-4.73-8.76-.03-10.67,0-21.34-.02-32.01,0-1.15-.08-2.28.37-3.37.82-1.98,2.97-3.3,4.85-3.3,16.44.03,32.88.03,49.32,0,2.42,0,4.86,1.81,5.28,4.47.44,2.8-1.14,5.33-3.8,6.07-.71.2-1.47.27-2.21.27-13.93.02-27.86.01-41.79.01-.22,0-.44.02-.65,0-.5-.06-.61.17-.61.63.02,3.17,0,6.34,0,9.5,0,5.57,0,11.14,0,16.71,0,.8,0,.8.82.8,17.68,0,35.36,0,53.04-.01,1.47,0,2.8.28,4.13.96,2.34,1.18,4.76,2.17,7.15,3.24,1.96.88,3.92,1.75,5.88,2.63.16.07.33.14.61.26Z"/><path class="cls-2" d="m199.76,95.94c0,14.4,0,28.8,0,43.2,0,2.68-1.57,4.72-4.14,5.39-3.2.84-6.49-1.62-6.62-4.95,0-.15,0-.29,0-.44,0-28.8,0-57.6,0-86.4,0-2.28.99-3.98,3.01-4.98,3.55-1.77,7.68.79,7.75,4.76.02,1.2,0,2.4,0,3.6,0,13.27,0,26.54,0,39.81Z"/></g><path class="cls-1" d="m278.86,108.67l-4.98,15.79h-12.49l22.97-68.44h17.13l22.83,68.44h-13.59l-5.07-15.79h-26.8Zm3.06-9.48h20.77l-10.43-32.45-10.34,32.45Z"/><path class="cls-1" d="m361.9,84.74c-2.42.03-4.64.27-6.65.72-2.01.45-3.73,1.2-5.17,2.25-1.44,1.05-2.54,2.46-3.33,4.24-.78,1.77-1.17,4-1.17,6.68v25.84h-11.96v-50.06h11.96v9.38c1.69-3.41,3.88-5.94,6.56-7.59,2.68-1.64,5.93-2.5,9.76-2.56v11.1Z"/><path class="cls-1" d="m400.14,118.34c-1.88,2.55-4.14,4.37-6.77,5.46-2.63,1.08-5.51,1.63-8.64,1.63-2.36,0-4.56-.3-6.61-.91s-3.81-1.53-5.31-2.78c-1.5-1.25-2.68-2.79-3.54-4.64s-1.29-4.02-1.29-6.51c0-2.71.53-4.98,1.58-6.8,1.05-1.82,2.45-3.32,4.19-4.5,1.74-1.18,3.72-2.08,5.96-2.7,2.23-.62,4.54-1.08,6.92-1.36s4.73-.45,7.06-.48c2.33-.03,4.45-.05,6.37-.05.03-1.82-.06-3.49-.26-5.03-.21-1.53-.65-2.85-1.34-3.95-.69-1.1-1.67-1.95-2.94-2.56-1.28-.61-3-.91-5.17-.91-1.21,0-2.39.16-3.54.48-1.15.32-2.21.78-3.18,1.39-.97.61-1.83,1.36-2.56,2.25-.73.89-1.32,1.91-1.77,3.06l-9.33-4.02c.86-2.2,2.05-4.07,3.57-5.6,1.52-1.53,3.23-2.78,5.15-3.73s3.96-1.65,6.15-2.08c2.19-.43,4.4-.65,6.63-.65,3,0,5.75.36,8.26,1.08,2.5.72,4.67,1.83,6.49,3.33,1.82,1.5,3.23,3.41,4.24,5.72,1,2.31,1.51,5.07,1.51,8.26v32.74h-11.77v-6.13Zm-20.39-8.23c0,1.25.21,2.3.62,3.16.41.86.98,1.56,1.7,2.11.72.54,1.56.93,2.54,1.17.97.24,2.03.36,3.18.36,1.53,0,3.03-.21,4.5-.62,1.47-.42,2.78-1.03,3.92-1.84s2.07-1.85,2.78-3.11c.7-1.26,1.05-2.72,1.05-4.38v-4.88h-5.98c-1.37,0-2.89.07-4.55.21s-3.21.49-4.67,1.03c-1.45.54-2.66,1.35-3.64,2.42-.97,1.07-1.46,2.53-1.46,4.38Z"/><path class="cls-1" d="m450.25,124.08c-1.28.38-2.58.69-3.92.91-1.34.22-2.68.33-4.02.33-4.91,0-8.71-1.24-11.39-3.73-2.68-2.49-4.02-6.22-4.02-11.2v-27.18h-6.7v-8.81h6.7v-10.34l11.96-5.17v15.51h10.96v8.81h-10.96v26.13c0,1.98.44,3.53,1.32,4.64.88,1.12,2.37,1.67,4.48,1.67.92,0,1.86-.07,2.8-.21.94-.14,1.87-.39,2.8-.74v9.38Z"/><path class="cls-1" d="m485.81,124.08c-1.28.38-2.58.69-3.92.91-1.34.22-2.68.33-4.02.33-4.91,0-8.71-1.24-11.39-3.73-2.68-2.49-4.02-6.22-4.02-11.2v-27.18h-6.7v-8.81h6.7v-10.34l11.96-5.17v15.51h10.96v8.81h-10.96v26.13c0,1.98.44,3.53,1.32,4.64.88,1.12,2.37,1.67,4.48,1.67.92,0,1.86-.07,2.8-.21.94-.14,1.87-.39,2.8-.74v9.38Z"/><path class="cls-1" d="m524.91,118.34c-1.88,2.55-4.14,4.37-6.77,5.46-2.63,1.08-5.51,1.63-8.64,1.63-2.36,0-4.56-.3-6.61-.91s-3.81-1.53-5.31-2.78c-1.5-1.25-2.68-2.79-3.54-4.64s-1.29-4.02-1.29-6.51c0-2.71.53-4.98,1.58-6.8,1.05-1.82,2.45-3.32,4.19-4.5,1.74-1.18,3.72-2.08,5.96-2.7,2.23-.62,4.54-1.08,6.92-1.36s4.73-.45,7.06-.48c2.33-.03,4.45-.05,6.37-.05.03-1.82-.06-3.49-.26-5.03-.21-1.53-.65-2.85-1.34-3.95-.69-1.1-1.67-1.95-2.94-2.56-1.28-.61-3-.91-5.17-.91-1.21,0-2.39.16-3.54.48-1.15.32-2.21.78-3.18,1.39-.97.61-1.83,1.36-2.56,2.25-.73.89-1.32,1.91-1.77,3.06l-9.33-4.02c.86-2.2,2.05-4.07,3.57-5.6,1.52-1.53,3.23-2.78,5.15-3.73s3.96-1.65,6.15-2.08c2.19-.43,4.4-.65,6.63-.65,3,0,5.75.36,8.26,1.08,2.5.72,4.67,1.83,6.49,3.33,1.82,1.5,3.23,3.41,4.24,5.72,1,2.31,1.51,5.07,1.51,8.26v32.74h-11.77v-6.13Zm-20.39-8.23c0,1.25.21,2.3.62,3.16.41.86.98,1.56,1.7,2.11.72.54,1.56.93,2.54,1.17.97.24,2.03.36,3.18.36,1.53,0,3.03-.21,4.5-.62,1.47-.42,2.78-1.03,3.92-1.84s2.07-1.85,2.78-3.11c.7-1.26,1.05-2.72,1.05-4.38v-4.88h-5.98c-1.37,0-2.89.07-4.55.21s-3.21.49-4.67,1.03c-1.45.54-2.66,1.35-3.64,2.42-.97,1.07-1.46,2.53-1.46,4.38Z"/><path class="cls-1" d="m562.91,59.56c0,.99-.18,1.91-.53,2.75-.35.85-.84,1.56-1.46,2.15-.62.59-1.36,1.05-2.23,1.39s-1.79.5-2.78.5-1.87-.17-2.73-.5-1.62-.81-2.27-1.41c-.65-.61-1.17-1.32-1.53-2.15-.37-.83-.55-1.74-.55-2.73s.18-1.9.55-2.73c.37-.83.87-1.55,1.51-2.15.64-.61,1.39-1.08,2.25-1.41s1.79-.5,2.78-.5,1.87.17,2.73.5,1.6.81,2.23,1.41c.62.61,1.12,1.32,1.48,2.15.37.83.55,1.74.55,2.73Zm-.91,14.84v50.06h-11.96v-50.06h11.96Z"/></svg>